HIERARCHY
ROOT Hips
{
  OFFSET 0 0 0
  CHANNELS 6 Xposition Yposition Zposition Zrotation Yrotation Xrotation
  JOINT LeftThigh
  {
    OFFSET 8.409438 0 -5.917753
    CHANNELS 3 Zrotation Yrotation Xrotation
    JOINT LeftLeg
    {
      OFFSET 0 0 -42.358652
      CHANNELS 3 Zrotation Yrotation Xrotation
      JOINT LeftFoot
      {
        OFFSET 0 0 -39.357303
        CHANNELS 3 Zrotation Yrotation Xrotation
      }
    }
  }
  JOINT RightThigh
  {
    OFFSET -8.409438 0 -5.917753
    CHANNELS 3 Zrotation Yrotation Xrotation
    JOINT RightLeg
    {
      OFFSET 0 0 -42.358652
      CHANNELS 3 Zrotation Yrotation Xrotation
      JOINT RightFoot
      {
        OFFSET 0 0 -39.357303
        CHANNELS 3 Zrotation Yrotation Xrotation
      }
    }
  }
  JOINT SpineLow
  {
    OFFSET 0 0 4.719101
    CHANNELS 3 Zrotation Yrotation Xrotation
    JOINT SpineMid
    {
      OFFSET 0 0 12.899191
      CHANNELS 3 Zrotation Yrotation Xrotation
      JOINT Chest
      {
        OFFSET 0 0 12.899191
        CHANNELS 3 Zrotation Yrotation Xrotation
        JOINT LeftShoulder
        {
          OFFSET 7.550562 1.41573 9.438202
          CHANNELS 3 Zrotation Yrotation Xrotation
          JOINT LeftArm
          {
            OFFSET 9.155056 0 4.247191
            CHANNELS 3 Zrotation Yrotation Xrotation
            JOINT LeftForearm
            {
              OFFSET 0 0 25.771955
              CHANNELS 3 Zrotation Yrotation Xrotation
              JOINT LeftHand
              {
                OFFSET 0 0 25.197169
                CHANNELS 3 Zrotation Yrotation Xrotation
              }
            }
          }
        }
        JOINT RightShoulder
        {
          OFFSET -7.550562 1.41573 9.438202
          CHANNELS 3 Zrotation Yrotation Xrotation
          JOINT RightArm
          {
            OFFSET -9.155056 0 4.247191
            CHANNELS 3 Zrotation Yrotation Xrotation
            JOINT RightForearm
            {
              OFFSET 0 0 -25.771955
              CHANNELS 3 Zrotation Yrotation Xrotation
              JOINT RightHand
              {
                OFFSET 0 0 -25.197169
                CHANNELS 3 Zrotation Yrotation Xrotation
              }
            }
          }
        }
        JOINT Neck
        {
          OFFSET 0 0 15.101124
          CHANNELS 3 Zrotation Yrotation Xrotation
          JOINT Head
          {
            OFFSET 0 0 11.325843
            CHANNELS 3 Zrotation Yrotation Xrotation
            End Site
            {
              OFFSET 0 0 14.157303
            }
          }
        }
      }
    }
  }
}
MOTION
Frames: 7
Frame Time: 0.0
0.0  101.685394  0.0  -1.124552  24.138356  -98.70049  19.725159  -26.87111  5.528685  -0.645858  8.138198  32.545033  -2.87187  4.472533  -0.36408  -12.778752  4.751682  -25.943265  -0.627209  9.760781  40.137721  7.082491  2.290731  4.192249  -0.907915  0.88812  2.59437  -2.384242  2.521342  7.060092  -2.384242  2.521342  7.060092  -0.659008  17.960205  6.845151  132.929014  31.623198  -175.756248  -31.847208  -23.101927  96.108237  73.49907  -9.052608  31.394907  8.560698  -11.070112  13.671735  5.13885  77.265662  -39.804108  -21.770242  -3.328096  -80.327146  57.155374  -4.591329  14.208136  -6.616442  -3.202518  -1.623599  -4.969594  -2.384667  -1.252262  
0.0  101.685394  0.0  -1.093517  24.190828  -98.685135  19.997824  -26.906895  5.6  -0.862908  8.230919  32.313077  -3.657409  4.41453  -0.816543  -12.759748  4.891971  -26.010127  -0.724698  9.755365  40.139263  7.116445  2.250926  4.198131  -0.904642  0.889548  2.586775  -2.375448  2.524627  7.039411  -2.375448  2.524627  7.039411  -0.674815  17.909193  6.851771  133.239829  31.593517  -175.635568  -31.840334  -23.045396  96.104848  73.452767  -8.965642  31.770759  8.518453  -11.068942  13.576385  5.114506  77.242448  -39.81355  -21.815049  -3.356992  -80.26362  57.127751  -4.564737  14.179491  -6.682371  -3.250296  -1.641074  -5.01921  -2.420147  -1.26623  
0.0  101.685394  0.0  -1.091031  24.35006  -98.637471  20.216648  -26.941895  5.580429  -1.248467  8.352026  31.999807  -3.686839  4.467457  -0.865019  -12.889302  4.980328  -26.127431  -0.804289  9.675787  40.161232  7.121186  2.294065  4.173236  -0.911742  0.892677  2.570803  -2.395141  2.533359  6.995365  -2.395141  2.533359  6.995366  -0.751606  17.810331  6.870414  133.467116  31.572667  -175.50931  -31.922076  -23.00311  96.028489  73.429459  -8.899772  32.033267  8.499077  -11.143665  13.513387  4.879454  77.227584  -39.9571  -21.891471  -3.389005  -80.199992  57.065292  -4.518305  14.158429  -6.746146  -3.326828  -1.626825  -5.067092  -2.477547  -1.256719  
0.0  101.685394  0.0  -1.049682  24.471534  -98.600034  20.33316  -26.937683  5.639146  -1.477313  8.451409  31.822675  -3.879604  4.432766  -1.104335  -12.987625  5.064541  -26.201579  -0.785694  9.658998  40.154153  7.093723  2.298134  4.180961  -0.928241  0.893232  2.547215  -2.441074  2.535767  6.930204  -2.441074  2.535767  6.930204  -0.675798  17.810624  6.968539  133.799693  31.568866  -175.383351  -31.921735  -22.897782  96.002966  73.433849  -8.838927  32.181477  8.485529  -11.105637  13.536011  4.718091  77.16971  -40.094704  -21.86598  -3.554424  -80.233054  57.021661  -4.528584  14.123253  -6.788996  -3.353421  -1.598973  -5.099113  -2.497695  -1.236359  
0.0  101.685394  0.0  -0.99537  24.786743  -98.489473  20.15222  -26.84572  5.593435  -1.771663  8.593101  31.630321  -3.73104  4.459512  -1.18076  -13.284752  5.154931  -26.369685  -0.73531  9.593498  40.192872  6.995757  2.350919  4.144574  -0.966762  0.901679  2.516175  -2.54665  2.56168  6.843539  -2.546649  2.56168  6.843538  -0.690199  17.739712  7.047381  133.908688  31.589016  -175.276449  -32.129988  -22.762866  95.890631  73.461634  -8.828073  32.358454  8.486286  -11.13149  13.557195  4.397427  77.110281  -40.315829  -21.876126  -3.696479  -80.260657  56.944852  -4.500037  14.070342  -6.875453  -3.416155  -1.575106  -5.163913  -2.544804  -1.219636  
0.0  101.685394  0.0  -0.973035  24.891738  -98.479234  20.039032  -26.818116  5.640211  -1.886757  8.717711  31.572028  -3.643168  4.47678  -1.24302  -13.355365  5.230088  -26.426753  -0.714459  9.611573  40.214888  6.982007  2.351376  4.134723  -0.964172  0.909259  2.513108  -2.538928  2.581989  6.835004  -2.538928  2.581989  6.835004  -0.799795  17.67006  7.023046  134.278407  31.583559  -175.14436  -32.161625  -22.552123  95.890179  73.479352  -8.758671  32.292711  8.398865  -11.14865  13.468531  4.233135  77.031309  -40.428587  -21.811981  -3.949606  -80.380195  56.929302  -4.517276  14.024922  -6.976327  -3.50191  -1.60593  -5.239867  -2.608531  -1.244285  
0.0  101.685394  0.0  -0.996347  25.035654  -98.47394  19.76407  -26.782248  5.584693  -1.811777  8.775174  31.65489  -3.647919  4.506051  -1.280525  -13.570104  5.308908  -26.586681  -0.609524  9.489995  40.356265  6.958355  2.39291  4.077041  -0.946479  0.914128  2.521188  -2.489783  2.593755  6.857645  -2.489783  2.593755  6.857645  -1.116651  17.491292  6.906871  134.288682  31.597432  -175.047678  -31.922938  -22.192253  96.078445  73.762256  -8.338877  31.504825  8.240547  -11.225158  13.326354  3.927055  76.978441  -40.634951  -21.792178  -4.156328  -80.484664  56.895382  -4.501259  13.98568  -7.231961  -3.638182  -1.697651  -5.432312  -2.709029  -1.316134  
